<svg width="45" height="45" viewBox="0 0 45 45" fill="none" xmlns="http://www.w3.org/2000/svg">
<path d="M22.4379 43.8748C34.5536 43.8748 44.3753 34.0531 44.3753 21.9374C44.3753 9.8217 34.5536 0 22.4379 0C10.3222 0 0.500488 9.8217 0.500488 21.9374C0.500488 34.0531 10.3222 43.8748 22.4379 43.8748Z" fill="url(#paint0_linear_1_659)"/>
<path d="M2.82666 9.73438C3.11295 12.5615 7.87262 17.8938 12.4891 18.8958C17.0341 19.8621 18.3224 20.2557 30.3468 17.6433C33.174 17.0349 38.1841 16.7844 41.4765 20.8999C44.3753 24.5144 45.6278 30.0613 38.9357 36.3241C44.3037 25.8027 35.6075 22.5819 30.0247 23.7271C4.93809 28.6657 -0.000507355 14.6014 2.82666 9.73438Z" fill="#D81F26"/>
<path d="M0.285645 15.5674C0.285645 15.5674 4.90216 30.1684 19.3243 29.739C23.1535 29.6316 31.9213 26.6613 34.3906 32.2799C36.6809 37.5048 29.953 42.4076 29.953 42.4076C29.953 42.4076 33.818 36.1091 28.4142 34.8207C26.3027 34.3197 21.8652 34.5702 19.6822 34.5702C1.96763 34.5702 0.285645 15.5674 0.285645 15.5674Z" fill="#D81F26"/>
<path d="M0 23.3691C6.33429 40.0101 19.2534 40.69 25.0508 39.5806C25.8739 39.4375 27.9496 39.3301 28.2717 40.6542C28.7011 42.4078 26.876 43.1951 25.9813 43.5172C17.7861 46.2012 1.50305 39.3301 0 23.3691Z" fill="#D81F26"/>
<defs>
<linearGradient id="paint0_linear_1_659" x1="22.4428" y1="-0.212109" x2="22.4428" y2="43.8811" gradientUnits="userSpaceOnUse">
<stop stop-color="#D7D6D5"/>
<stop offset="0.2576" stop-color="#797878"/>
<stop offset="0.357" stop-color="#9B9999"/>
<stop offset="0.461" stop-color="#BEBBBB"/>
<stop offset="0.5575" stop-color="#D9D8D7"/>
<stop offset="0.6427" stop-color="#EDECEC"/>
<stop offset="0.7076" stop-color="#F5F5F5"/>
<stop offset="0.9968" stop-color="#ABABAB"/>
</linearGradient>
</defs>
</svg>
